<?xml version="1.0" encoding="UTF-8"?>
<svg width="126px" height="35px" viewBox="0 0 126 35" version="1.1" xmlns="http://www.w3.org/2000/svg" xmlns:xlink="http://www.w3.org/1999/xlink">
    <!-- Generator: Sketch 63.1 (92452) - https://sketch.com -->
    <title>Group 10</title>
    <desc>Created with Sketch.</desc>
    <defs>
        <polygon id="path-1" points="-3.55271368e-15 0 125.774838 0 125.774838 34.933 -3.55271368e-15 34.933"></polygon>
    </defs>
    <g id="Symbols" stroke="none" stroke-width="1" fill="none" fill-rule="evenodd">
        <g id="novo-rodape" transform="translate(0.000000, 1.000000)">
            <g id="Group-10" transform="translate(0.000000, -1.000000)">
                <g id="Group-3">
                    <mask id="mask-2" fill="white">
                        <use xlink:href="#path-1"></use>
                    </mask>
                    <g id="Clip-2"></g>
                    <path d="M106.737291,29.7264 C101.441291,26.0164 100.154291,18.7144 103.865291,13.4184 C107.575291,8.1224 114.877291,6.8354 120.173291,10.5454 C120.742291,10.9344 121.251291,11.3834 121.729291,11.8624 C121.848291,11.9814 121.968291,12.1014 122.058291,12.2214 C123.434291,13.7174 123.344291,16.0514 121.848291,17.4574 C121.161291,18.0864 120.262291,18.4454 119.335291,18.4454 C118.288291,18.4454 117.300291,17.9964 116.612291,17.2484 C116.582291,17.2184 115.175291,15.7824 113.440291,15.8424 C111.076291,15.8724 109.132291,17.7874 109.101291,20.1814 C109.101291,22.5744 111.047291,24.5194 113.440291,24.5194 C114.846291,24.5194 116.193291,23.8314 117.001291,22.6644 C118.228291,21.0484 120.562291,20.7194 122.177291,21.9764 C123.704291,23.0834 124.063291,25.2074 123.046291,26.8534 C119.335291,32.1504 112.034291,33.4364 106.737291,29.7264 L106.737291,29.7264 Z M99.1672914,28.0504 C99.2262914,30.0854 97.6402914,31.7904 95.6062914,31.8804 C93.5712914,31.9404 91.8662914,30.3544 91.7762914,28.3204 L91.7762914,14.9144 C91.8362914,12.8794 93.5422914,11.2634 95.6062914,11.3534 C97.5512914,11.4134 99.1072914,12.9694 99.1672914,14.9144 L99.1672914,28.0504 Z M91.9252914,5.9074 L91.9252914,5.7884 C91.9852914,3.7524 93.6912914,2.1374 95.7562914,2.2264 C97.7012914,2.2874 99.2572914,3.8424 99.3162914,5.7884 L99.3162914,5.9074 C99.3162914,7.6724 98.0902914,9.1694 96.3842914,9.5284 C95.9662914,9.6474 95.7562914,9.5884 95.4572914,9.5884 C95.2162914,9.5884 95.0972914,9.5584 94.7682914,9.5284 C93.0922914,9.1394 91.9252914,7.6434 91.9252914,5.9074 L91.9252914,5.9074 Z M85.8512914,19.0144 L85.8512914,27.8714 C85.7612914,30.8634 83.3382914,33.1974 80.3452914,33.1974 L80.1662914,33.1974 C77.2632914,33.1074 74.9292914,30.7444 74.8402914,27.8414 L74.8402914,19.0144 C74.6002914,18.9244 74.3312914,18.8344 74.0912914,18.7144 L74.0612914,18.6844 C73.8822914,18.5954 73.7322914,18.4754 73.5522914,18.3854 L73.1932914,18.5954 C72.3852914,19.0434 71.4282914,19.3124 70.5012914,19.3124 L69.8422914,19.3124 C69.3032914,19.3124 68.7642914,19.3434 68.2262914,19.4334 C67.5972914,19.6124 67.5382914,20.6894 67.5382914,21.3174 L67.5382914,27.3624 C67.6282914,30.3844 65.2342914,32.9284 62.2122914,33.0184 L62.0322914,33.0184 C60.6262914,33.0184 59.2792914,32.4794 58.2612914,31.5214 C57.9322914,31.2224 57.6332914,30.8634 57.3942914,30.5044 C56.3462914,31.9114 54.7012914,32.7784 52.9352914,32.7784 C51.7392914,32.7784 50.6012914,32.3304 49.7042914,31.5514 C48.2372914,32.4194 46.3832914,32.8984 44.4072914,32.8984 L44.1682914,32.8984 C40.8462914,32.8984 37.7342914,31.6114 35.3412914,29.2774 C32.9472914,26.9434 31.6002914,23.8314 31.5412914,20.5104 C31.4802914,17.1284 32.7372914,13.9564 35.0712914,11.5034 C37.4052914,9.0794 40.5772914,7.7034 43.9282914,7.6434 L44.4072914,7.6434 C46.2932914,7.6434 47.8792914,8.0914 49.3752914,9.0494 C50.3622914,8.2714 51.5892914,7.8824 52.9352914,7.8824 C54.6712914,7.8824 56.3172914,8.7504 57.3642914,10.1264 C58.3822914,8.5404 60.1472914,7.5534 62.0032914,7.5534 L62.0622914,7.5534 C63.3482914,7.5534 64.5762914,8.0614 65.4732914,8.9894 C66.7002914,8.3014 68.0472914,7.9124 69.1832914,7.9124 L69.3632914,7.9124 C70.0822914,7.9124 70.8302914,8.0024 71.5172914,8.1224 C72.2062914,8.2414 72.8642914,8.5104 73.4332914,8.9294 L73.7322914,9.1394 C73.7922914,9.1094 73.8222914,9.0794 73.8822914,9.0494 C74.1812914,8.8704 74.5102914,8.7204 74.8402914,8.6004 C74.8692914,7.2544 75.4082914,5.9974 76.3362914,5.0094 C77.3532914,3.9324 78.6992914,3.3044 80.1952914,3.2744 L80.3752914,3.2744 C83.3672914,3.2744 85.7912914,5.6084 85.8812914,8.6004 C88.1552914,9.3784 89.6512914,11.5624 89.5912914,13.9864 C89.5022914,16.2904 88.0062914,18.2664 85.8512914,19.0144 L85.8512914,19.0144 Z M28.3692914,25.1184 C25.7652914,29.2474 21.5162914,31.5214 16.3402914,31.5214 C8.2602914,31.5214 1.7072914,24.9684 1.7072914,16.8894 C1.7072914,8.8094 8.2602914,2.2564 16.3402914,2.2564 C19.8702914,2.2564 24.3292914,2.6454 27.3212914,5.8174 C28.7272914,7.2844 28.6682914,9.6184 27.2022914,11.0244 C26.6332914,11.5624 25.8842914,11.8624 25.1362914,11.8624 C24.0902914,11.8624 22.9822914,11.3834 22.0542914,10.9344 C19.6612914,9.7674 18.1942914,9.6184 17.0882914,9.6184 L16.3402914,9.6184 C12.3302914,9.9174 9.3072914,13.3584 9.5772914,17.3684 C9.8162914,20.9884 12.7182914,23.8914 16.3402914,24.1304 C18.1052914,24.1304 20.5582914,23.6224 22.0852914,21.2284 L18.4042914,21.2284 C18.2552914,21.2584 18.0752914,21.2584 17.9252914,21.2584 C15.8902914,21.2584 14.2152914,19.5824 14.2152914,17.5474 C14.2152914,15.4824 15.8902914,13.8074 17.9252914,13.8074 L23.9692914,13.8074 C25.8552914,13.8074 27.5912914,14.9144 28.6372914,16.7694 C30.0142914,19.4024 29.9242914,22.5744 28.3692914,25.1184 L28.3692914,25.1184 Z M123.644291,29.6064 C124.529291,28.6184 125.143291,27.4894 125.472291,26.6094 C125.742291,25.7424 125.858291,24.9384 125.709291,24.0404 C125.439291,22.5444 124.601291,21.2284 123.375291,20.3604 C123.076291,20.1504 122.776291,19.9714 122.447291,19.8514 C122.747291,19.6724 123.046291,19.4334 123.315291,19.1934 C125.619291,17.0684 125.768291,13.4774 123.644291,11.1434 C123.495291,10.9944 123.375291,10.8444 123.256291,10.7254 C120.681291,8.1514 117.180291,6.6854 113.560291,6.7154 C108.323291,6.7154 103.536291,9.7074 101.231291,14.4054 C101.022291,12.9394 100.244291,11.5934 99.0772914,10.6954 C100.513291,9.6184 101.351291,7.9724 101.351291,6.1764 L101.351291,6.0274 C101.560291,2.9154 99.1972914,0.2224 96.0852914,0.0124 C92.9722914,-0.1966 90.2802914,2.1664 90.0702914,5.2794 C90.0412914,5.5184 90.0412914,5.7574 90.0702914,6.0274 L90.0702914,6.1464 C90.0702914,7.8824 90.6692914,9.3784 91.9852914,10.3954 C91.6562914,10.5454 91.2672914,10.7854 90.8792914,11.2634 C90.2802914,9.6474 89.0832914,8.2714 87.5272914,7.4334 C86.8692914,3.9624 83.7862914,1.4494 80.1962914,1.5684 C78.2802914,1.6284 76.4852914,2.4364 75.1692914,3.8424 C74.3602914,4.7104 73.7622914,5.7574 73.4632914,6.9244 C72.9842914,6.7154 72.4752914,6.5364 71.9662914,6.4464 C71.1592914,6.2664 70.3212914,6.1764 69.4832914,6.1764 L69.2732914,6.1764 C68.1962914,6.1764 67.0002914,6.4464 65.8022914,6.9554 C64.7252914,6.2364 63.4382914,5.8174 62.1522914,5.8174 L62.0622914,5.8174 C60.3562914,5.8174 58.6512914,6.4764 57.3342914,7.6134 C56.0782914,6.6554 54.5512914,6.1464 52.9952914,6.1464 C51.6782914,6.1464 50.4522914,6.4464 49.3752914,7.0444 C47.9082914,6.2964 46.2932914,5.9374 44.4972914,5.9374 L43.9882914,5.9374 C40.1582914,5.9974 36.5972914,7.5834 33.9342914,10.3364 C32.3182914,12.0124 31.1812914,13.9864 30.5232914,16.1114 C30.5232914,16.0814 30.4932914,16.0814 30.4932914,16.0514 C29.8942914,14.9444 29.0272914,13.9864 27.9792914,13.2684 C28.2182914,13.0894 28.4582914,12.9094 28.6682914,12.7294 C30.9422914,10.5754 31.0612914,6.9844 28.8772914,4.6804 C25.2872914,0.9994 20.3192914,0.5214 16.3692914,0.5214 C7.1822914,0.6704 -0.148708601,8.2414 0.00229139935,17.3974 C0.151291399,26.3744 7.3922914,33.6164 16.3692914,33.7664 C22.2342914,33.7664 27.1122914,31.1624 30.0742914,26.4344 C30.2842914,26.1054 30.4632914,25.7464 30.6422914,25.4174 C30.6732914,25.4474 30.6732914,25.5074 30.7032914,25.5374 C30.7322914,25.4774 30.7622914,25.4174 30.7932914,25.3274 C31.5102914,27.2424 32.6472914,28.9784 34.1742914,30.4744 C36.8672914,33.1074 40.4272914,34.5744 44.1982914,34.5744 L44.4372914,34.5744 C46.2622914,34.5744 48.0282914,34.2144 49.5542914,33.5264 C50.5722914,34.1554 51.7682914,34.4844 52.9352914,34.4844 C54.5212914,34.4844 56.0482914,33.9454 57.3042914,32.9884 C58.6802914,34.1554 60.4462914,34.7834 62.2422914,34.7234 C66.1912914,34.6034 69.3032914,31.2824 69.2142914,27.3324 L69.2142914,21.0184 C69.4832914,20.9884 69.7532914,20.9884 69.9922914,20.9884 L70.4702914,20.9884 C71.3682914,20.9884 72.2962914,20.8094 73.1332914,20.4804 L73.1332914,27.9604 C73.2542914,31.7614 76.3362914,34.8134 80.1062914,34.9334 L80.3452914,34.9334 C84.2652914,34.9334 87.4372914,31.8804 87.5562914,27.9314 L87.5562914,20.0914 C88.4842914,19.5824 89.2622914,18.8944 89.8612914,18.0864 L89.8612914,28.3204 C89.7712914,31.4614 92.2552914,34.0654 95.3962914,34.1554 C98.5392914,34.2454 101.142291,31.7614 101.231291,28.6194 L101.231291,26.5244 C104.613291,33.2874 112.841291,36.0404 119.634291,32.6594 C121.161291,31.9114 122.507291,30.8634 123.644291,29.6064 L123.644291,29.6064 Z" id="Fill-1" fill="#FFFFFF" mask="url(#mask-2)"></path>
                </g>
                <path d="M48.1483914,20.3006 C48.1483914,22.3646 46.4423914,24.0706 44.3773914,24.0706 C42.3123914,24.0706 40.6073914,22.3646 40.6073914,20.3006 C40.6073914,18.2356 42.3123914,16.5296 44.3773914,16.5296 C46.4723914,16.5296 48.1483914,18.2056 48.1483914,20.3006 M52.9063914,10.0076 C51.4693914,10.0076 50.2723914,10.7246 49.7943914,11.8916 L49.7043914,12.0716 L49.5543914,11.9226 C47.9383914,10.3956 46.4423914,9.7676 44.3773914,9.7676 L44.1683914,9.7676 L43.9593914,9.7676 C38.1833914,9.8866 33.5753914,14.6756 33.6953914,20.4496 C33.7543914,23.2336 34.8913914,25.8656 36.8963914,27.8116 C38.9013914,29.7566 41.5643914,30.8036 44.3473914,30.7436 C46.7413914,30.7436 48.7463914,29.9656 49.8833914,28.5896 L50.0333914,28.4096 L50.1233914,28.6186 C50.6913914,29.9056 51.7093914,30.6546 52.9063914,30.6546 C54.7603914,30.6546 56.2563914,29.1576 56.2563914,27.3026 L56.2563914,13.3586 C56.2563914,11.5326 54.7603914,10.0076 52.9063914,10.0076" id="Fill-4" fill="#FFFFFF"></path>
                <path d="M71.1288914,10.2166 C70.5008914,10.0966 69.8428914,10.0366 69.2138914,10.0366 C68.1368914,10.0366 66.3708914,10.6656 64.9648914,12.0416 L64.7558914,12.2206 L64.7258914,11.9516 C64.5158914,10.6656 63.3788914,9.6776 62.0628914,9.6776 L62.0318914,9.6776 C60.1768914,9.6776 58.6808914,11.1746 58.6808914,13.0296 L58.6808914,27.3926 L58.6808914,27.6316 C58.7408914,29.4566 60.2368914,30.8636 62.0318914,30.8636 L62.1518914,30.8636 C64.0078914,30.8036 65.4428914,29.2476 65.3838914,27.3926 L65.3838914,21.3476 C65.3538914,20.0616 65.6228914,17.7866 67.7768914,17.2786 C68.5558914,17.1586 69.3338914,17.0986 70.1108914,17.0986 L70.4708914,17.0986 C71.0098914,17.0986 71.5178914,16.9786 71.9968914,16.7396 C70.7698914,14.8546 70.8298914,12.4006 72.1158914,10.5756 C71.7868914,10.4256 71.4578914,10.2766 71.1288914,10.2166" id="Fill-6" fill="#FFFFFF"></path>
                <path d="M84.1756914,10.4559 L83.7266914,10.4559 L83.7266914,8.8999 L83.7266914,8.6609 C83.6966914,7.7629 83.3076914,6.9249 82.6796914,6.3269 C82.0216914,5.7279 81.1836914,5.3989 80.2846914,5.4289 C79.3876914,5.4589 78.5496914,5.8479 77.9506914,6.4759 C77.3536914,7.1339 77.0246914,7.9719 77.0536914,8.8699 L77.0536914,10.4259 L76.6346914,10.4259 L76.6056914,10.4259 C76.0356914,10.4259 75.4386914,10.5759 74.9586914,10.8749 C74.6296914,11.0539 74.3306914,11.2939 74.0916914,11.5929 C73.5526914,12.1909 73.2826914,12.9699 73.2536914,13.7769 C73.2536914,14.3459 73.3726914,14.8849 73.6426914,15.3629 L73.6726914,15.3929 C73.7016914,15.4229 73.7326914,15.4829 73.7326914,15.5129 C73.7626914,15.5429 73.7916914,15.5729 73.7916914,15.6019 C73.8816914,15.7229 73.9716914,15.8419 74.0616914,15.9319 L74.0916914,15.9619 C74.1816914,16.0809 74.3006914,16.2009 74.4206914,16.2909 C74.6006914,16.4399 74.8396914,16.5899 75.0486914,16.7099 C75.5276914,16.9489 76.0666914,17.0689 76.6056914,17.0689 L76.8146914,17.0689 L76.9636914,17.0689 L76.9636914,27.7509 C77.0246914,29.5169 78.4596914,30.9229 80.1966914,30.9829 C82.0506914,31.0429 83.6076914,29.5769 83.6666914,27.7509 L83.6666914,17.1289 L84.2046914,17.1289 L84.2046914,17.1589 C85.9416914,17.0689 87.3176914,15.6629 87.3766914,13.9269 C87.4066914,13.0289 87.0776914,12.1909 86.4796914,11.5329 C85.9106914,10.8449 85.0726914,10.4859 84.1756914,10.4559" id="Fill-8" fill="#FFFFFF"></path>
            </g>
        </g>
    </g>
</svg>